<svg xmlns="http://www.w3.org/2000/svg" width="272.3" height="47.7" viewBox="0 0 272.3 47.7" style="enable-background:new 0 0 272.3 47.7;" space="preserve">
<style type="text/css">
	.st0{fill:#E12826;}
</style>
<g>
	<path class="st0" d="M132.9,34.7c-1.5,0-2.9-0.4-4.2-1.1c-1.3-0.7-2.3-1.8-3.1-3.1c-0.4-0.7-0.7-1.5-0.9-2.4   c-0.2-0.9-0.3-1.9-0.3-3l0-14.7l-3.5,0c0,0,5.1-5.1,5.1-5.1c0,0,5.1,5.1,5.1,5.1l-3.4,0l0,14.8c0,2,0.5,3.5,1.4,4.6   c0.9,1.1,2.1,1.6,3.7,1.6c1.5,0,2.6-0.5,3.6-1.5c1-1,1.5-2.3,1.5-3.9c0-1.7-0.5-2.9-1.5-3.9c-0.7-0.8-1.7-1.2-2.7-1.4l0,3.2   l-5.1-5.1l5.1-5.1l0,3.6c0.9,0.1,1.6,0.3,2.4,0.6c1.1,0.4,2,1.1,2.8,1.9c0.8,0.8,1.4,1.8,1.8,2.8c0.4,1,0.6,2.2,0.6,3.3   c0,2.4-0.8,4.6-2.4,6.2C137.4,33.9,135.3,34.7,132.9,34.7L132.9,34.7z"/>
	<path class="st0" d="M144.6,18.2h3v16.3h-3V18.2z M144.5,13.7c0.1-0.2,0.2-0.4,0.4-0.6c0.2-0.1,0.4-0.2,0.6-0.3   c0.2-0.1,0.4-0.1,0.7-0.1c0.2,0,0.5,0,0.7,0.1c0.2,0.1,0.4,0.2,0.6,0.3c0.2,0.2,0.4,0.3,0.5,0.6c0.1,0.2,0.2,0.5,0.2,0.8   c0,0.3-0.1,0.6-0.2,0.8c-0.1,0.2-0.2,0.4-0.4,0.6c-0.2,0.2-0.4,0.3-0.6,0.3c-0.2,0.1-0.4,0.1-0.6,0.1c-0.2,0-0.5,0-0.7-0.1   c-0.2-0.1-0.4-0.2-0.6-0.3c-0.2-0.2-0.4-0.4-0.4-0.6c-0.1-0.2-0.1-0.5-0.1-0.8v-0.1C144.4,14.1,144.4,13.9,144.5,13.7"/>
	<path class="st0" d="M155.4,10.7V24h1.6c0.2,0,0.4,0,0.6,0c0.2,0,0.4-0.1,0.5-0.2c0.2-0.1,0.4-0.2,0.5-0.3c0.2-0.1,0.3-0.3,0.5-0.5   c0.1-0.1,0.1-0.2,0.2-0.3c0.1-0.1,0.2-0.2,0.3-0.4c0.1-0.1,0.2-0.3,0.3-0.5c0.1-0.2,0.2-0.3,0.3-0.5l1.9-3.3h3.5   c0,0.1-0.1,0.2-0.1,0.2c0,0.1-0.1,0.1-0.1,0.2c0,0.1-0.1,0.1-0.1,0.2c0,0.1-0.1,0.1-0.1,0.2c0,0.1-0.1,0.1-0.1,0.2   c0,0.1-0.1,0.1-0.1,0.2c0,0.1-0.1,0.1-0.1,0.2c0,0.1-0.1,0.1-0.1,0.2c-0.1,0.2-0.2,0.3-0.3,0.5c-0.1,0.1-0.2,0.3-0.3,0.4   c-0.1,0.2-0.2,0.3-0.3,0.4c-0.1,0.1-0.2,0.3-0.2,0.4c-0.3,0.5-0.5,0.9-0.8,1.3c-0.3,0.4-0.5,0.8-0.8,1.1c-0.3,0.3-0.5,0.6-0.8,0.8   c-0.2,0.2-0.5,0.3-0.7,0.4c0.6,0.1,1.1,0.2,1.6,0.4c0.5,0.2,0.8,0.5,1.1,0.8c0.3,0.4,0.5,0.7,0.7,1.1c0.2,0.4,0.3,0.8,0.4,1.2v0.2   v0.2v0.1c0,0,0,0,0,0.1v0.1v0.1v5.3h-3v-4.3c0-0.4-0.1-0.8-0.2-1.2c-0.1-0.4-0.3-0.7-0.6-1c-0.2-0.3-0.6-0.5-1-0.7   c-0.5-0.1-1-0.2-1.7-0.2l-2.7-0.1v7.5h-3V10.7H155.4z"/>
	<path class="st0" d="M178.7,22.4c0,0-0.1-0.1-0.1-0.1c0,0-0.1-0.1-0.1-0.2c0,0-0.1-0.1-0.2-0.2c-0.1-0.1-0.1-0.1-0.2-0.2   c-0.1,0-0.1-0.1-0.2-0.2c-0.1-0.1-0.2-0.1-0.2-0.2c-0.1,0-0.2-0.1-0.3-0.2c-0.1-0.1-0.2-0.1-0.3-0.2c-0.2-0.1-0.5-0.2-0.8-0.2   c-0.3,0-0.7-0.1-1-0.1c-0.9,0-1.7,0.2-2.3,0.5c-0.7,0.3-1.2,0.8-1.7,1.4c-0.5,0.6-0.8,1.3-1,1.9c-0.2,0.7-0.3,1.4-0.3,2.1v0.1v0   c0,0.7,0.1,1.3,0.4,1.9c0.2,0.6,0.6,1.2,1,1.7c0.5,0.5,1,1,1.7,1.2c0.7,0.3,1.4,0.4,2.3,0.4c0.9,0,1.7-0.1,2.3-0.3   c0.6-0.2,1.1-0.5,1.4-1c0.3-0.5,0.6-1,0.9-1.6c0.3-0.6,0.5-1.3,0.7-2.1v0l0,0v0l3,0.2v0.1c0,0,0,0.1,0,0.1v0.1v0.1v0.1   c0,0,0,0.1,0,0.1v0.1V28c0,0.2,0,0.4,0,0.6c0,0.2-0.1,0.4-0.1,0.6c0,0.1-0.1,0.2-0.1,0.3c0,0.1-0.1,0.2-0.1,0.3   c0,0.1-0.1,0.2-0.1,0.3c0,0.1-0.1,0.2-0.1,0.3c-0.3,0.6-0.6,1.1-1.1,1.7c-0.5,0.5-1,1.1-1.7,1.5c-0.6,0.5-1.4,0.8-2.2,1.1   c-0.9,0.2-1.8,0.4-2.8,0.4c-1.2,0-2.3-0.2-3.3-0.6c-1-0.4-1.9-0.9-2.8-1.7c-0.8-0.8-1.5-1.7-1.9-2.7c-0.4-1-0.6-2.1-0.6-3.3   c0-1.3,0.2-2.4,0.5-3.4c0.3-1,0.8-1.8,1.5-2.5c0.7-0.7,1.4-1.3,2.1-1.7c0.7-0.5,1.5-0.8,2.3-1c0.1,0,0.2,0,0.3-0.1   c0.1,0,0.2,0,0.3-0.1c0.1,0,0.2,0,0.3,0c0.1,0,0.2,0,0.3-0.1c0.2,0,0.4,0,0.5-0.1c0.2,0,0.3,0,0.5,0c0.9,0,1.8,0.1,2.6,0.4   c0.8,0.3,1.5,0.7,2.2,1.2c0.7,0.5,1.3,1.1,1.8,1.7c0.5,0.6,1,1.3,1.4,2L172,29.3l-1.3-2.4L178.7,22.4z"/>
	<path class="st0" d="M192.6,31.5c0,0,0.1,0.1,0.1,0.1h0.1h0.1h0.1c0,0,0.1,0,0.1,0h0.1h0.1h0.1c0.3,0,0.5,0,0.8-0.1   c0.2,0,0.5-0.1,0.7-0.2c0.2-0.1,0.4-0.2,0.5-0.4c0.1-0.2,0.2-0.4,0.2-0.7c0-0.3-0.1-0.6-0.3-0.8c-0.2-0.2-0.4-0.5-0.8-0.6   c-0.3-0.2-0.7-0.4-1.2-0.5c-0.4-0.2-0.9-0.3-1.4-0.5c-0.1,0-0.1,0-0.2-0.1c-0.1,0-0.1,0-0.2-0.1c-0.1,0-0.2,0-0.2-0.1   c-0.1,0-0.1,0-0.2-0.1c-0.2,0-0.3-0.1-0.5-0.1c-0.1,0-0.3-0.1-0.4-0.1c-0.7-0.2-1.4-0.4-2-0.7c-0.6-0.3-1.1-0.6-1.5-1   c-0.4-0.4-0.8-0.8-1-1.3c-0.2-0.5-0.3-1.1-0.3-1.7c0-0.9,0.2-1.7,0.5-2.3c0.3-0.6,0.8-1,1.4-1.2c0.6-0.2,1.3-0.4,2.1-0.6   c0.7-0.1,1.6-0.2,2.4-0.2l6.2-0.1v2.6h-6.4c-0.4,0-0.8,0.1-1.1,0.1c-0.4,0-0.7,0.1-1,0.2c-0.3,0.1-0.5,0.2-0.6,0.4   c-0.1,0.2-0.2,0.4-0.2,0.7c0,0.3,0.1,0.6,0.2,0.8c0.1,0.2,0.4,0.4,0.7,0.6c0.3,0.2,0.6,0.3,0.9,0.4c0.3,0.1,0.7,0.2,1,0.4   c0.1,0,0.2,0,0.3,0.1c0.1,0,0.2,0,0.3,0.1c0,0,0.1,0,0.1,0.1c0,0,0.1,0,0.2,0c0,0,0.1,0,0.1,0.1c0,0,0.1,0,0.1,0   c0.1,0,0.1,0,0.2,0.1c0.1,0,0.1,0,0.2,0.1c0,0,0.1,0,0.1,0c0,0,0.1,0,0.1,0c0,0,0.1,0,0.1,0c0,0,0.1,0,0.1,0c1,0.3,1.8,0.7,2.5,1.1   c0.7,0.4,1.2,0.7,1.6,1.1c0.4,0.4,0.7,0.8,0.9,1.4c0.2,0.5,0.3,1.1,0.3,1.8c0,0.7-0.1,1.4-0.4,1.9c-0.2,0.5-0.5,0.9-0.9,1.2   c-0.4,0.3-0.8,0.5-1.2,0.7c-0.4,0.2-0.9,0.3-1.3,0.4c-0.2,0-0.3,0-0.5,0h-0.4h-0.2c-0.1,0-0.1,0-0.2,0h-0.2h-0.2h-0.2h-0.2h-0.2   h-0.2c-0.1,0-0.1,0-0.2,0h-0.2h-0.1h-0.1h-6.7v-3H192.6z"/>
	<path class="st0" d="M204.4,10.7v8.8c0.3-0.2,0.7-0.4,1-0.7c0.4-0.2,0.7-0.4,1.1-0.6c0.4-0.2,0.7-0.3,1.2-0.4   c0.4-0.1,0.9-0.1,1.3-0.1c0.9,0,1.7,0.1,2.4,0.4c0.8,0.2,1.5,0.6,2.1,1.1c0.6,0.5,1.1,1.1,1.4,1.8c0.3,0.7,0.5,1.5,0.5,2.3v11.2h-3   v-9.6c0-0.6-0.1-1.2-0.3-1.7c-0.2-0.5-0.5-1-0.8-1.3c-0.4-0.4-0.8-0.7-1.2-0.9c-0.4-0.2-0.9-0.3-1.4-0.3c-0.6,0-1.2,0.1-1.7,0.3   c-0.5,0.2-0.9,0.4-1.2,0.7c-0.3,0.3-0.6,0.7-0.8,1.1c-0.2,0.4-0.4,0.7-0.5,1.1c0,0.1,0,0.2-0.1,0.4c0,0.1,0,0.2-0.1,0.4   c0,0.1,0,0.2,0,0.3v0.3v9.3h-3V10.7H204.4z"/>
	<path class="st0" d="M231.7,25.1c0-0.5-0.1-1-0.3-1.5c-0.2-0.5-0.5-0.9-0.9-1.4c-0.4-0.5-0.9-0.8-1.6-1c-0.7-0.2-1.6-0.3-2.5-0.3   c-0.2,0-0.3,0-0.5,0c-0.2,0-0.4,0.1-0.6,0.1c-0.2,0-0.4,0.1-0.6,0.1c-0.2,0.1-0.4,0.2-0.6,0.3c-0.4,0.2-0.7,0.4-1.1,0.7   c-0.3,0.3-0.7,0.6-1,1c-0.3,0.4-0.5,0.8-0.7,1.3c-0.2,0.5-0.3,1.1-0.3,1.8c0,0.9,0.1,1.7,0.4,2.4c0.2,0.7,0.6,1.2,1.1,1.7   c0.5,0.4,1.1,0.8,1.6,1c0.6,0.3,1.1,0.4,1.8,0.5h0.1h0.1c0,0,0.1,0,0.1,0h0.1h0.1h0.1h0.1h0.1c0.3,0,0.5,0,0.8-0.1   c0.2,0,0.5-0.1,0.7-0.2c0.1,0,0.2-0.1,0.3-0.1c0.1,0,0.2-0.1,0.3-0.1c0.1-0.1,0.2-0.1,0.3-0.2c0.1-0.1,0.2-0.1,0.3-0.2   c0.1-0.1,0.2-0.2,0.3-0.3c0.1-0.1,0.2-0.2,0.3-0.3c0.1-0.1,0.2-0.2,0.3-0.3c0.1-0.1,0.2-0.2,0.3-0.3v3.7c0,0,0,0.1-0.1,0.1v0   c-0.3,0.2-0.6,0.3-0.8,0.5s-0.6,0.3-0.9,0.4c-0.3,0.1-0.7,0.2-1.2,0.2c-0.5,0.1-1,0.1-1.6,0.1H226H226h-0.1h-0.1h-0.1h0h-0.1   c-1,0-2-0.2-2.9-0.6c-0.9-0.4-1.7-0.9-2.5-1.7c-0.7-0.8-1.3-1.7-1.7-2.7c-0.4-1-0.6-2.2-0.6-3.5c0-1.1,0.2-2.2,0.5-3.2   c0.4-1,0.9-1.9,1.6-2.7c0.7-0.8,1.6-1.4,2.7-1.8c1.1-0.4,2.3-0.6,3.7-0.6c1.3,0,2.5,0.2,3.6,0.5c1,0.4,1.9,0.9,2.6,1.6   c0.7,0.7,1.3,1.5,1.6,2.3c0.4,0.8,0.5,1.6,0.5,2.5v9.5h-3.2V25.1z"/>
	<path class="st0" d="M240.2,18.2v1.6c0,0,0.1-0.1,0.1-0.1c0,0,0.1-0.1,0.2-0.2c0-0.1,0.1-0.1,0.2-0.2c0.1-0.1,0.1-0.1,0.2-0.2   c0.2-0.2,0.4-0.3,0.6-0.5c0.2-0.2,0.5-0.3,0.8-0.4c0.3-0.1,0.6-0.2,0.9-0.3c0.3-0.1,0.7-0.1,1.1-0.1l1.1-0.1v3h-0.8   c-0.6,0.1-1.2,0.3-1.6,0.5c-0.5,0.2-0.8,0.5-1.2,0.8c-0.3,0.3-0.5,0.7-0.7,1.1c-0.2,0.4-0.3,0.8-0.5,1.1c-0.1,0.3-0.2,0.6-0.2,0.8   c0,0.3-0.1,0.5-0.1,0.8c0,0.3,0,0.5,0,0.7V27v7.4h-3V18.2H240.2z"/>
	<path class="st0" d="M258.2,22.4c0,0-0.1-0.1-0.1-0.1c0,0-0.1-0.1-0.1-0.2c0,0-0.1-0.1-0.2-0.2c-0.1-0.1-0.1-0.1-0.2-0.2   c-0.1,0-0.1-0.1-0.2-0.2c-0.1-0.1-0.2-0.1-0.2-0.2c-0.1,0-0.2-0.1-0.3-0.2c-0.1-0.1-0.2-0.1-0.3-0.2c-0.2-0.1-0.5-0.2-0.8-0.2   c-0.3,0-0.7-0.1-1-0.1c-0.9,0-1.7,0.2-2.3,0.5c-0.7,0.3-1.2,0.8-1.7,1.4c-0.5,0.6-0.8,1.3-1,1.9c-0.2,0.7-0.3,1.4-0.3,2.1v0.1v0   c0,0.7,0.1,1.3,0.4,1.9c0.2,0.6,0.6,1.2,1,1.7c0.5,0.5,1,1,1.7,1.2c0.7,0.3,1.4,0.4,2.3,0.4c0.9,0,1.7-0.1,2.3-0.3   c0.6-0.2,1.1-0.5,1.4-1c0.3-0.5,0.6-1,0.9-1.6c0.3-0.6,0.5-1.3,0.7-2.1v0l0,0v0l3,0.2v0.1c0,0,0,0.1,0,0.1v0.1v0.1v0.1   c0,0,0,0.1,0,0.1v0.1V28c0,0.2,0,0.4,0,0.6c0,0.2-0.1,0.4-0.1,0.6c0,0.1-0.1,0.2-0.1,0.3c0,0.1-0.1,0.2-0.1,0.3   c0,0.1-0.1,0.2-0.1,0.3c0,0.1-0.1,0.2-0.1,0.3c-0.3,0.6-0.6,1.1-1.1,1.7c-0.5,0.5-1,1.1-1.7,1.5c-0.6,0.5-1.4,0.8-2.2,1.1   c-0.8,0.2-1.8,0.4-2.8,0.4c-1.2,0-2.3-0.2-3.3-0.6c-1-0.4-1.9-0.9-2.8-1.7c-0.8-0.8-1.5-1.7-1.9-2.7c-0.4-1-0.6-2.1-0.6-3.3   c0-1.3,0.2-2.4,0.5-3.4c0.3-1,0.9-1.8,1.5-2.5c0.7-0.7,1.4-1.3,2.1-1.7c0.7-0.5,1.5-0.8,2.3-1c0.1,0,0.2,0,0.3-0.1   c0.1,0,0.2,0,0.3-0.1c0.1,0,0.2,0,0.3,0c0.1,0,0.2,0,0.3-0.1c0.2,0,0.4,0,0.5-0.1c0.2,0,0.3,0,0.5,0c0.9,0,1.8,0.1,2.6,0.4   c0.8,0.3,1.5,0.7,2.2,1.2c0.7,0.5,1.3,1.1,1.8,1.7c0.5,0.6,1,1.3,1.4,2l-11.3,6.1l-1.3-2.4L258.2,22.4z"/>
	<path class="st0" d="M18.6,30.8c-2.2,0-4.1-1.2-4.9-3.1h0l2.4-2.5l-7.2,0.1l0.1,7.2l2.4-2.4c1.5,2.4,4.2,4,7.3,3.9   c4-0.1,7.2-2.8,8.1-6.5l-3.3,0.1C22.6,29.4,20.7,30.8,18.6,30.8"/>
	<path class="st0" d="M24.3,19.3c-1.6-1.5-3.7-2.4-6-2.3c-4.2,0.1-7.7,3.2-8.3,7.3l3.2-0.1c0.6-2.3,2.6-4,5.1-4.1   c1.4,0,2.8,0.5,3.7,1.4l-2.5,2.5l7.2-0.1l-0.1-7.2L24.3,19.3z"/>
	<path class="st0" d="M43.7,24.3c0-0.5-0.1-1-0.3-1.5c-0.2-0.5-0.5-0.9-0.9-1.4c-0.4-0.5-0.9-0.8-1.6-1c-0.7-0.2-1.6-0.3-2.5-0.3   c-0.2,0-0.3,0-0.5,0c-0.2,0-0.4,0.1-0.6,0.1c-0.2,0-0.4,0.1-0.6,0.1c-0.2,0.1-0.4,0.2-0.6,0.3c-0.4,0.2-0.7,0.4-1.1,0.7   c-0.3,0.3-0.7,0.6-1,1c-0.3,0.4-0.5,0.8-0.7,1.3c-0.2,0.5-0.3,1.1-0.3,1.8c0,0.9,0.1,1.7,0.4,2.4s0.6,1.2,1.1,1.7   c0.5,0.4,1.1,0.8,1.6,1c0.6,0.3,1.1,0.4,1.7,0.5h0.1H38c0,0,0.1,0,0.1,0h0.1h0.1h0.1h0.1h0.1c0.3,0,0.5,0,0.8,0s0.5-0.1,0.7-0.2   c0.1,0,0.2-0.1,0.3-0.1c0.1,0,0.2-0.1,0.3-0.1c0.1-0.1,0.2-0.1,0.3-0.2c0.1-0.1,0.2-0.1,0.3-0.2c0.1-0.1,0.2-0.2,0.3-0.3   c0.1-0.1,0.2-0.2,0.3-0.3c0.1-0.1,0.2-0.2,0.3-0.3c0.1-0.1,0.2-0.2,0.3-0.3v3.7c0,0,0,0.1-0.1,0.1v0c-0.3,0.2-0.6,0.3-0.9,0.5   c-0.3,0.1-0.6,0.3-0.9,0.4c-0.3,0.1-0.7,0.2-1.2,0.2c-0.5,0.1-1,0.1-1.6,0.1H38h-0.1h-0.1h-0.1h-0.1h-0.1h-0.1c-1,0-2-0.2-2.9-0.6   c-0.9-0.4-1.7-0.9-2.5-1.7c-0.7-0.8-1.3-1.7-1.7-2.7c-0.4-1-0.6-2.2-0.6-3.5c0-1.1,0.2-2.2,0.5-3.2c0.4-1,0.9-1.9,1.6-2.7   c0.7-0.8,1.6-1.4,2.7-1.8c1.1-0.4,2.3-0.6,3.7-0.6c1.3,0,2.5,0.2,3.6,0.5c1,0.4,1.9,0.9,2.6,1.6c0.7,0.7,1.3,1.5,1.6,2.3   c0.4,0.8,0.5,1.6,0.5,2.5v9.5h-3.2V24.3z"/>
	<path class="st0" d="M49.3,25.4c0-1.2,0.2-2.2,0.5-3.1c0.3-0.9,0.8-1.7,1.4-2.4c0.6-0.7,1.3-1.2,1.9-1.6c0.7-0.4,1.4-0.8,2.1-1   c0.2-0.1,0.4-0.1,0.6-0.2c0.2,0,0.4-0.1,0.6-0.1c0.1,0,0.2,0,0.3-0.1c0.1,0,0.2,0,0.3,0c0.1,0,0.2,0,0.3,0h0.3   c1.2,0,2.3,0.1,3.2,0.4c0.9,0.3,1.7,0.7,2.3,1.3c0.6,0.6,1.1,1.2,1.6,1.8c0.4,0.6,0.8,1.3,1,2c0.1,0.3,0.2,0.5,0.2,0.8   c0.1,0.3,0.1,0.5,0.1,0.8c0,0.3,0.1,0.5,0.1,0.8c0,0.2,0,0.5,0,0.7c0,0.2,0,0.5,0,0.7c0,0.3-0.1,0.5-0.1,0.8c0,0.3-0.1,0.5-0.1,0.8   c-0.1,0.3-0.1,0.5-0.2,0.8c-0.2,0.7-0.5,1.3-0.9,1.9c-0.4,0.6-0.9,1.2-1.5,1.8c-0.6,0.6-1.3,1-2.1,1.3c-0.9,0.3-1.9,0.5-3,0.6   c-0.3,0-0.7,0-1-0.1c-0.3,0-0.7-0.1-1.1-0.2c-0.4-0.1-0.8-0.2-1.2-0.4c-0.5-0.2-1-0.4-1.5-0.6v-3.3c0.3,0.2,0.7,0.4,0.9,0.5   c0.3,0.1,0.5,0.2,0.8,0.3c0.2,0.1,0.4,0.2,0.7,0.2c0.2,0.1,0.4,0.1,0.6,0.2c0.1,0,0.2,0,0.4,0.1c0.1,0,0.3,0,0.4,0   c0.1,0,0.2,0,0.4,0h0.4c0.9,0,1.6-0.1,2.3-0.4c0.6-0.3,1.2-0.7,1.6-1.2c0.4-0.5,0.7-1.1,0.9-1.8c0.2-0.7,0.3-1.4,0.3-2.2   c0-0.9-0.1-1.6-0.4-2.3c-0.3-0.7-0.7-1.3-1.3-1.8c-0.6-0.5-1.2-0.9-1.8-1.1c-0.6-0.2-1.2-0.4-1.9-0.4c-0.2,0-0.3,0-0.5,0   c-0.2,0-0.3,0.1-0.5,0.1c-0.2,0-0.4,0.1-0.5,0.1c-0.2,0.1-0.4,0.1-0.5,0.2c-0.4,0.2-0.8,0.5-1.2,0.8c-0.4,0.3-0.7,0.7-1.1,1.2   c-0.3,0.4-0.6,1-0.8,1.6c-0.2,0.6-0.3,1.3-0.3,2.1v14.9h-3V25.4z"/>
	<path class="st0" d="M70.1,17.4h3v16.3h-3V17.4z M70,12.9c0.1-0.2,0.2-0.4,0.4-0.6c0.2-0.1,0.4-0.2,0.6-0.3   c0.2-0.1,0.4-0.1,0.7-0.1c0.2,0,0.5,0,0.7,0.1c0.2,0.1,0.4,0.2,0.6,0.3c0.2,0.2,0.4,0.3,0.5,0.6c0.1,0.2,0.2,0.5,0.2,0.8   c0,0.3-0.1,0.6-0.2,0.8c-0.1,0.2-0.2,0.4-0.4,0.6c-0.2,0.2-0.4,0.3-0.6,0.3c-0.2,0.1-0.4,0.1-0.6,0.1c-0.2,0-0.5,0-0.7-0.1   c-0.2-0.1-0.4-0.2-0.6-0.3c-0.2-0.2-0.4-0.4-0.4-0.6c-0.1-0.2-0.1-0.5-0.1-0.8v-0.1C69.9,13.4,69.9,13.2,70,12.9"/>
	<path class="st0" d="M78.5,13.4h3.2v4h6.2v2.9h-6.2v8.3c0,0.3,0,0.6,0.1,0.8c0,0.2,0.1,0.5,0.2,0.7c0.1,0.2,0.3,0.4,0.6,0.5   c0.3,0.1,0.7,0.2,1.3,0.2l3.8-0.1v3h-4h-0.1h-0.1h0c0,0,0,0-0.1,0h-0.1h-0.1h-0.1h0c-0.8,0-1.4-0.1-2-0.3c-0.6-0.2-1-0.6-1.4-1   c-0.4-0.5-0.6-1-0.8-1.5c-0.2-0.5-0.3-1.1-0.4-1.7c0,0,0-0.1,0-0.2v-0.2v-0.2v-0.2v-0.1V13.4z"/>
	<path class="st0" d="M102.3,24.3c0-0.5-0.1-1-0.3-1.5c-0.2-0.5-0.5-0.9-0.9-1.4c-0.4-0.5-0.9-0.8-1.6-1c-0.7-0.2-1.6-0.3-2.5-0.3   c-0.2,0-0.3,0-0.5,0c-0.2,0-0.4,0.1-0.6,0.1c-0.2,0-0.4,0.1-0.6,0.1c-0.2,0.1-0.4,0.2-0.6,0.3c-0.4,0.2-0.7,0.4-1.1,0.7   c-0.3,0.3-0.7,0.6-1,1c-0.3,0.4-0.5,0.8-0.7,1.3c-0.2,0.5-0.3,1.1-0.3,1.8c0,0.9,0.1,1.7,0.4,2.4s0.6,1.2,1.1,1.7   c0.5,0.4,1.1,0.8,1.6,1c0.6,0.3,1.1,0.4,1.8,0.5h0.1h0.1c0,0,0.1,0,0.1,0h0.1h0.1H97h0.1h0.1c0.3,0,0.5,0,0.8,0   c0.2,0,0.5-0.1,0.7-0.2c0.1,0,0.2-0.1,0.3-0.1c0.1,0,0.2-0.1,0.3-0.1c0.1-0.1,0.2-0.1,0.3-0.2c0.1-0.1,0.2-0.1,0.3-0.2   c0.1-0.1,0.2-0.2,0.3-0.3c0.1-0.1,0.2-0.2,0.3-0.3c0.1-0.1,0.2-0.2,0.3-0.3c0.1-0.1,0.2-0.2,0.3-0.3v3.7c0,0,0,0.1-0.1,0.1v0   c-0.3,0.2-0.6,0.3-0.9,0.5c-0.3,0.1-0.6,0.3-0.9,0.4c-0.3,0.1-0.7,0.2-1.2,0.2c-0.5,0.1-1,0.1-1.6,0.1h-0.1h-0.1h-0.1h-0.1h-0.1   h-0.1h-0.1c-1,0-2-0.2-2.9-0.6c-0.9-0.4-1.7-0.9-2.5-1.7c-0.7-0.8-1.3-1.7-1.7-2.7c-0.4-1-0.6-2.2-0.6-3.5c0-1.1,0.2-2.2,0.5-3.2   c0.4-1,0.9-1.9,1.6-2.7c0.7-0.8,1.6-1.4,2.7-1.8c1.1-0.4,2.3-0.6,3.7-0.6c1.3,0,2.5,0.2,3.6,0.5c1,0.4,1.9,0.9,2.6,1.6   c0.7,0.7,1.3,1.5,1.6,2.3c0.4,0.8,0.5,1.6,0.5,2.5v9.5h-3.2V24.3z"/>
</g>
<rect x="108.7" y="9.9" class="st0" width="3.2" height="23.8"/>
</svg>